<svg width="66" height="95" viewBox="0 0 66 95" fill="none" xmlns="http://www.w3.org/2000/svg">
<path opacity="0.4" d="M0.992 78.464C3.89333 76.16 5.216 75.0933 4.96 75.264C13.3227 68.352 19.8933 62.6773 24.672 58.24C29.536 53.8027 33.632 49.152 36.96 44.288C40.288 39.424 41.952 34.688 41.952 30.08C41.952 26.5813 41.1413 23.8507 39.52 21.888C37.8987 19.9253 35.4667 18.944 32.224 18.944C28.9813 18.944 26.4213 20.1813 24.544 22.656C22.752 25.0453 21.856 28.4587 21.856 32.896H0.736C0.906667 25.6427 2.44267 19.584 5.344 14.72C8.33067 9.856 12.2133 6.272 16.992 3.96799C21.856 1.66399 27.232 0.511993 33.12 0.511993C43.2747 0.511993 50.912 3.11466 56.032 8.31999C61.2373 13.5253 63.84 20.3093 63.84 28.672C63.84 37.8027 60.7253 46.2933 54.496 54.144C48.2667 61.9093 40.3307 69.504 30.688 76.928H65.248V94.72H0.992V78.464Z" fill="black"/>
</svg>
