<svg width="66" height="98" viewBox="0 0 66 98" fill="none" xmlns="http://www.w3.org/2000/svg">
<path opacity="0.4" d="M1.528 29.3921C1.86933 20.2614 4.856 13.2214 10.488 8.27211C16.12 3.32277 23.7573 0.848106 33.4 0.848106C39.8 0.848106 45.2613 1.95744 49.784 4.17611C54.392 6.39477 57.848 9.42411 60.152 13.2641C62.5413 17.1041 63.736 21.4134 63.736 26.1921C63.736 31.8241 62.328 36.4321 59.512 40.0161C56.696 43.5148 53.4107 45.9041 49.656 47.1841V47.6961C54.52 49.3174 58.36 52.0054 61.176 55.7601C63.992 59.5148 65.4 64.3361 65.4 70.2241C65.4 75.5148 64.1627 80.2081 61.688 84.3041C59.2987 88.3148 55.7573 91.4721 51.064 93.7761C46.456 96.0801 40.952 97.2321 34.552 97.2321C24.312 97.2321 16.12 94.7148 9.976 89.6801C3.91733 84.6454 0.717334 77.0508 0.376 66.8961H21.624C21.7093 70.6508 22.776 73.6374 24.824 75.8561C26.872 77.9894 29.8587 79.0561 33.784 79.0561C37.112 79.0561 39.672 78.1174 41.464 76.2401C43.3413 74.2774 44.28 71.7174 44.28 68.5601C44.28 64.4641 42.9573 61.5201 40.312 59.7281C37.752 57.8508 33.6133 56.9121 27.896 56.9121H23.8V39.1201H27.896C32.248 39.1201 35.7467 38.3948 38.392 36.9441C41.1227 35.4081 42.488 32.7201 42.488 28.8801C42.488 25.8081 41.6347 23.4188 39.928 21.7121C38.2213 20.0054 35.8747 19.1521 32.888 19.1521C29.6453 19.1521 27.2133 20.1334 25.592 22.0961C24.056 24.0588 23.16 26.4908 22.904 29.3921H1.528Z" fill="black"/>
</svg>
